<?xml version="1.0" encoding="UTF-8" standalone="no"?>
<!DOCTYPE svg PUBLIC "-//W3C//DTD SVG 1.1//EN" "http://www.w3.org/Graphics/SVG/1.1/DTD/svg11.dtd">
<svg width="100%" height="100%" viewBox="0 0 40 40" version="1.1" xmlns="http://www.w3.org/2000/svg" xmlns:xlink="http://www.w3.org/1999/xlink" xml:space="preserve" xmlns:serif="http://www.serif.com/" style="fill-rule:evenodd;clip-rule:evenodd;stroke-linecap:round;stroke-linejoin:round;stroke-miterlimit:1.5;">
    <g transform="matrix(1.14898,0,0,1.14898,-7.84079,-4.39386)">
        <circle cx="24.231" cy="21.231" r="15.231" style="fill:rgb(235,235,235);"/>
    </g>
    <g>
        <g transform="matrix(1.02601,0,0,1.02601,-1.42248,-1.81165)">
            <circle cx="20.879" cy="21.259" r="16.569" style="fill:none;stroke:rgb(176,107,87);stroke-width:1.95px;"/>
        </g>
        <g transform="matrix(0.931034,0,0,0.931034,1.37218,0.390012)">
            <path d="M19.897,19.655L19.897,5.655" style="fill:none;stroke:rgb(89,23,4);stroke-width:1.07px;"/>
        </g>
        <g transform="matrix(0.305913,0.850233,-0.850233,0.305913,32.0324,-3.25794)">
            <path d="M19.897,19.655L19.897,5.655" style="fill:none;stroke:rgb(69,16,0);stroke-width:1.11px;"/>
        </g>
        <g transform="matrix(1,0,0,1,-0.896552,-0.103448)">
            <circle cx="20.897" cy="20.103" r="1.138" style="fill:none;stroke:rgb(93,21,0);stroke-width:0.5px;"/>
        </g>
    </g>
    <g transform="matrix(1,0,0,1,3.45502,-1.91698)">
        <path d="M25.381,23.965C24.91,23.92 24.435,23.92 23.964,23.965L23.73,25.102C23.279,25.171 22.836,25.29 22.41,25.456L21.64,24.588C21.208,24.784 20.797,25.021 20.412,25.297L20.778,26.398C20.421,26.684 20.097,27.008 19.812,27.364L18.711,26.998C18.435,27.384 18.198,27.795 18.002,28.226L18.869,28.996C18.703,29.422 18.585,29.865 18.516,30.317L17.379,30.55C17.333,31.021 17.333,31.496 17.379,31.967L18.516,32.201C18.585,32.653 18.703,33.095 18.869,33.521L18.002,34.292C18.198,34.723 18.435,35.134 18.711,35.519L19.812,35.153C20.097,35.51 20.421,35.834 20.778,36.119L20.412,37.22C20.797,37.496 21.208,37.733 21.64,37.929L22.41,37.062C22.836,37.228 23.279,37.346 23.73,37.415L23.964,38.552C24.435,38.598 24.91,38.598 25.381,38.552L25.615,37.415C26.066,37.346 26.509,37.228 26.935,37.062L27.705,37.929C28.136,37.733 28.547,37.496 28.933,37.22L28.567,36.119C28.923,35.834 29.248,35.51 29.533,35.153L30.634,35.519C30.91,35.134 31.147,34.723 31.343,34.292L30.475,33.521C30.641,33.095 30.76,32.653 30.829,32.201L31.966,31.967C32.011,31.496 32.011,31.021 31.966,30.55L30.829,30.317C30.76,29.865 30.641,29.422 30.475,28.996L31.343,28.226C31.147,27.795 30.91,27.384 30.634,26.998L29.533,27.364C29.248,27.008 28.923,26.684 28.567,26.398L28.933,25.297C28.547,25.021 28.136,24.784 27.705,24.588L26.935,25.456C26.509,25.29 26.066,25.171 25.615,25.102L25.381,23.965ZM24.672,29.793C25.481,29.793 26.138,30.45 26.138,31.259C26.138,32.067 25.481,32.724 24.672,32.724C23.864,32.724 23.207,32.067 23.207,31.259C23.207,30.45 23.864,29.793 24.672,29.793Z" style="fill:rgb(49,49,49);"/>
        <path d="M25.381,23.965C24.91,23.92 24.435,23.92 23.964,23.965L23.73,25.102C23.279,25.171 22.836,25.29 22.41,25.456L21.64,24.588C21.208,24.784 20.797,25.021 20.412,25.297L20.778,26.398C20.421,26.684 20.097,27.008 19.812,27.364L18.711,26.998C18.435,27.384 18.198,27.795 18.002,28.226L18.869,28.996C18.703,29.422 18.585,29.865 18.516,30.317L17.379,30.55C17.333,31.021 17.333,31.496 17.379,31.967L18.516,32.201C18.585,32.653 18.703,33.095 18.869,33.521L18.002,34.292C18.198,34.723 18.435,35.134 18.711,35.519L19.812,35.153C20.097,35.51 20.421,35.834 20.778,36.119L20.412,37.22C20.797,37.496 21.208,37.733 21.64,37.929L22.41,37.062C22.836,37.228 23.279,37.346 23.73,37.415L23.964,38.552C24.435,38.598 24.91,38.598 25.381,38.552L25.615,37.415C26.066,37.346 26.509,37.228 26.935,37.062L27.705,37.929C28.136,37.733 28.547,37.496 28.933,37.22L28.567,36.119C28.923,35.834 29.248,35.51 29.533,35.153L30.634,35.519C30.91,35.134 31.147,34.723 31.343,34.292L30.475,33.521C30.641,33.095 30.76,32.653 30.829,32.201L31.966,31.967C32.011,31.496 32.011,31.021 31.966,30.55L30.829,30.317C30.76,29.865 30.641,29.422 30.475,28.996L31.343,28.226C31.147,27.795 30.91,27.384 30.634,26.998L29.533,27.364C29.248,27.008 28.923,26.684 28.567,26.398L28.933,25.297C28.547,25.021 28.136,24.784 27.705,24.588L26.935,25.456C26.509,25.29 26.066,25.171 25.615,25.102L25.381,23.965ZM24.672,29.793C25.481,29.793 26.138,30.45 26.138,31.259C26.138,32.067 25.481,32.724 24.672,32.724C23.864,32.724 23.207,32.067 23.207,31.259C23.207,30.45 23.864,29.793 24.672,29.793Z" style="fill:none;stroke:white;stroke-opacity:0.75;stroke-width:0.5px;stroke-linecap:butt;stroke-miterlimit:2;"/>
    </g>
</svg>
