<?xml version="1.0" encoding="UTF-8" standalone="no"?>
<!DOCTYPE svg PUBLIC "-//W3C//DTD SVG 1.1//EN" "http://www.w3.org/Graphics/SVG/1.1/DTD/svg11.dtd">
<svg width="100%" height="100%" viewBox="0 0 40 40" version="1.1" xmlns="http://www.w3.org/2000/svg" xmlns:xlink="http://www.w3.org/1999/xlink" xml:space="preserve" xmlns:serif="http://www.serif.com/" style="fill-rule:evenodd;clip-rule:evenodd;stroke-linecap:round;stroke-linejoin:round;stroke-miterlimit:1.5;">
    <g id="Digital" transform="matrix(1.49489,0,0,1.49489,-9.03704,-6.1151)">
        <g transform="matrix(0.833519,0,0,0.78686,2.39021,2.75996)">
            <g id="レイヤー1">
                <rect x="5.552" y="7.862" width="29.172" height="16" style="fill:rgb(235,235,235);"/>
            </g>
        </g>
        <g id="レイヤー2">
            <g id="Number">
                <g transform="matrix(1,0,0,0.573724,1.06822,6.49762)">
                    <rect x="8.191" y="9.971" width="0.973" height="4.352"/>
                </g>
                <g transform="matrix(1.15597,0,0,0.544957,-1.25898,5.8445)">
                    <path d="M9.513,10.816L9.946,11.734L9.08,11.734L9.513,10.816Z"/>
                </g>
                <g transform="matrix(-1.15597,1.41565e-16,-6.6738e-17,-0.544957,20.7476,21.1043)">
                    <path d="M9.513,10.816L9.946,11.734L9.08,11.734L9.513,10.816Z"/>
                </g>
            </g>
            <g id="Number1" serif:id="Number" transform="matrix(1,0,0,1,2.81037,0)">
                <g transform="matrix(1,0,0,0.573724,1.06822,6.49762)">
                    <rect x="8.191" y="9.971" width="0.973" height="4.352"/>
                </g>
                <g transform="matrix(1.15597,0,0,0.544957,-1.25898,5.8445)">
                    <path d="M9.513,10.816L9.946,11.734L9.08,11.734L9.513,10.816Z"/>
                </g>
                <g transform="matrix(-1.15597,1.41565e-16,-6.6738e-17,-0.544957,20.7476,21.1043)">
                    <path d="M9.513,10.816L9.946,11.734L9.08,11.734L9.513,10.816Z"/>
                </g>
            </g>
            <g id="Number2" serif:id="Number" transform="matrix(1,0,0,1,0,3.54751)">
                <g transform="matrix(1,0,0,0.573724,1.06822,6.49762)">
                    <rect x="8.191" y="9.971" width="0.973" height="4.352"/>
                </g>
                <g transform="matrix(1.15597,0,0,0.544957,-1.25898,5.8445)">
                    <path d="M9.513,10.816L9.946,11.734L9.08,11.734L9.513,10.816Z"/>
                </g>
                <g transform="matrix(-1.15597,1.41565e-16,-6.6738e-17,-0.544957,20.7476,21.1043)">
                    <path d="M9.513,10.816L9.946,11.734L9.08,11.734L9.513,10.816Z"/>
                </g>
            </g>
            <g id="Number3" serif:id="Number" transform="matrix(1,0,0,1,2.81037,3.54751)">
                <g transform="matrix(1,0,0,0.573724,1.06822,6.49762)">
                    <rect x="8.191" y="9.971" width="0.973" height="4.352"/>
                </g>
                <g transform="matrix(1.15597,0,0,0.544957,-1.25898,5.8445)">
                    <path d="M9.513,10.816L9.946,11.734L9.08,11.734L9.513,10.816Z"/>
                </g>
                <g transform="matrix(-1.15597,1.41565e-16,-6.6738e-17,-0.544957,20.7476,21.1043)">
                    <path d="M9.513,10.816L9.946,11.734L9.08,11.734L9.513,10.816Z"/>
                </g>
            </g>
            <g id="Number4" serif:id="Number" transform="matrix(6.12323e-17,-1,1,6.12323e-17,-1.96151,21.4501)">
                <g transform="matrix(1,0,0,0.4071,1.06822,8.1591)">
                    <rect x="8.191" y="9.971" width="0.973" height="4.352"/>
                </g>
                <g transform="matrix(1.15597,0,0,0.544957,-1.25898,5.8445)">
                    <path d="M9.513,10.816L9.946,11.734L9.08,11.734L9.513,10.816Z"/>
                </g>
                <g transform="matrix(-1.15597,1.41565e-16,-6.6738e-17,-0.544957,20.7476,20.3857)">
                    <path d="M9.513,10.816L9.946,11.734L9.08,11.734L9.513,10.816Z"/>
                </g>
            </g>
            <g id="Number5" serif:id="Number" transform="matrix(6.12323e-17,-1,1,6.12323e-17,-1.96151,25.0003)">
                <g transform="matrix(1,0,0,0.4071,1.06822,8.1591)">
                    <rect x="8.191" y="9.971" width="0.973" height="4.352"/>
                </g>
                <g transform="matrix(1.15597,0,0,0.544957,-1.25898,5.8445)">
                    <path d="M9.513,10.816L9.946,11.734L9.08,11.734L9.513,10.816Z"/>
                </g>
                <g transform="matrix(-1.15597,1.41565e-16,-6.6738e-17,-0.544957,20.7476,20.3857)">
                    <path d="M9.513,10.816L9.946,11.734L9.08,11.734L9.513,10.816Z"/>
                </g>
            </g>
            <g id="Number6" serif:id="Number" transform="matrix(6.12323e-17,-1,1,6.12323e-17,-1.96151,28.5323)">
                <g transform="matrix(1,0,0,0.4071,1.06822,8.1591)">
                    <rect x="8.191" y="9.971" width="0.973" height="4.352"/>
                </g>
                <g transform="matrix(1.15597,0,0,0.544957,-1.25898,5.8445)">
                    <path d="M9.513,10.816L9.946,11.734L9.08,11.734L9.513,10.816Z"/>
                </g>
                <g transform="matrix(-1.15597,1.41565e-16,-6.6738e-17,-0.544957,20.7476,20.3857)">
                    <path d="M9.513,10.816L9.946,11.734L9.08,11.734L9.513,10.816Z"/>
                </g>
            </g>
        </g>
        <g id="レイヤー21" serif:id="レイヤー2" transform="matrix(1,0,0,1,4.68322,0)">
            <g id="Number7" serif:id="Number">
                <g transform="matrix(1,0,0,0.573724,1.06822,6.49762)">
                    <rect x="8.191" y="9.971" width="0.973" height="4.352"/>
                </g>
                <g transform="matrix(1.15597,0,0,0.544957,-1.25898,5.8445)">
                    <path d="M9.513,10.816L9.946,11.734L9.08,11.734L9.513,10.816Z"/>
                </g>
                <g transform="matrix(-1.15597,1.41565e-16,-6.6738e-17,-0.544957,20.7476,21.1043)">
                    <path d="M9.513,10.816L9.946,11.734L9.08,11.734L9.513,10.816Z"/>
                </g>
            </g>
            <g id="Number8" serif:id="Number" transform="matrix(1,0,0,1,2.81037,0)">
                <g transform="matrix(1,0,0,0.573724,1.06822,6.49762)">
                    <rect x="8.191" y="9.971" width="0.973" height="4.352"/>
                </g>
                <g transform="matrix(1.15597,0,0,0.544957,-1.25898,5.8445)">
                    <path d="M9.513,10.816L9.946,11.734L9.08,11.734L9.513,10.816Z"/>
                </g>
                <g transform="matrix(-1.15597,1.41565e-16,-6.6738e-17,-0.544957,20.7476,21.1043)">
                    <path d="M9.513,10.816L9.946,11.734L9.08,11.734L9.513,10.816Z"/>
                </g>
            </g>
            <g id="Number9" serif:id="Number" transform="matrix(1,0,0,1,0,3.54751)">
                <g transform="matrix(1,0,0,0.573724,1.06822,6.49762)">
                    <rect x="8.191" y="9.971" width="0.973" height="4.352"/>
                </g>
                <g transform="matrix(1.15597,0,0,0.544957,-1.25898,5.8445)">
                    <path d="M9.513,10.816L9.946,11.734L9.08,11.734L9.513,10.816Z"/>
                </g>
                <g transform="matrix(-1.15597,1.41565e-16,-6.6738e-17,-0.544957,20.7476,21.1043)">
                    <path d="M9.513,10.816L9.946,11.734L9.08,11.734L9.513,10.816Z"/>
                </g>
            </g>
            <g id="Number10" serif:id="Number" transform="matrix(1,0,0,1,2.81037,3.54751)">
                <g transform="matrix(1,0,0,0.573724,1.06822,6.49762)">
                    <rect x="8.191" y="9.971" width="0.973" height="4.352"/>
                </g>
                <g transform="matrix(1.15597,0,0,0.544957,-1.25898,5.8445)">
                    <path d="M9.513,10.816L9.946,11.734L9.08,11.734L9.513,10.816Z"/>
                </g>
                <g transform="matrix(-1.15597,1.41565e-16,-6.6738e-17,-0.544957,20.7476,21.1043)">
                    <path d="M9.513,10.816L9.946,11.734L9.08,11.734L9.513,10.816Z"/>
                </g>
            </g>
            <g id="Number11" serif:id="Number" transform="matrix(6.12323e-17,-1,1,6.12323e-17,-1.96151,21.4501)">
                <g transform="matrix(1,0,0,0.4071,1.06822,8.1591)">
                    <rect x="8.191" y="9.971" width="0.973" height="4.352"/>
                </g>
                <g transform="matrix(1.15597,0,0,0.544957,-1.25898,5.8445)">
                    <path d="M9.513,10.816L9.946,11.734L9.08,11.734L9.513,10.816Z"/>
                </g>
                <g transform="matrix(-1.15597,1.41565e-16,-6.6738e-17,-0.544957,20.7476,20.3857)">
                    <path d="M9.513,10.816L9.946,11.734L9.08,11.734L9.513,10.816Z"/>
                </g>
            </g>
            <g id="Number12" serif:id="Number" transform="matrix(6.12323e-17,-1,1,6.12323e-17,-1.96151,25.0003)">
                <g transform="matrix(1,0,0,0.4071,1.06822,8.1591)">
                    <rect x="8.191" y="9.971" width="0.973" height="4.352"/>
                </g>
                <g transform="matrix(1.15597,0,0,0.544957,-1.25898,5.8445)">
                    <path d="M9.513,10.816L9.946,11.734L9.08,11.734L9.513,10.816Z"/>
                </g>
                <g transform="matrix(-1.15597,1.41565e-16,-6.6738e-17,-0.544957,20.7476,20.3857)">
                    <path d="M9.513,10.816L9.946,11.734L9.08,11.734L9.513,10.816Z"/>
                </g>
            </g>
            <g id="Number13" serif:id="Number" transform="matrix(6.12323e-17,-1,1,6.12323e-17,-1.96151,28.5323)">
                <g transform="matrix(1,0,0,0.4071,1.06822,8.1591)">
                    <rect x="8.191" y="9.971" width="0.973" height="4.352"/>
                </g>
                <g transform="matrix(1.15597,0,0,0.544957,-1.25898,5.8445)">
                    <path d="M9.513,10.816L9.946,11.734L9.08,11.734L9.513,10.816Z"/>
                </g>
                <g transform="matrix(-1.15597,1.41565e-16,-6.6738e-17,-0.544957,20.7476,20.3857)">
                    <path d="M9.513,10.816L9.946,11.734L9.08,11.734L9.513,10.816Z"/>
                </g>
            </g>
        </g>
        <g id="レイヤー22" serif:id="レイヤー2" transform="matrix(1,0,0,1,10.7488,0)">
            <g id="Number14" serif:id="Number">
                <g transform="matrix(1,0,0,0.573724,1.06822,6.49762)">
                    <rect x="8.191" y="9.971" width="0.973" height="4.352"/>
                </g>
                <g transform="matrix(1.15597,0,0,0.544957,-1.25898,5.8445)">
                    <path d="M9.513,10.816L9.946,11.734L9.08,11.734L9.513,10.816Z"/>
                </g>
                <g transform="matrix(-1.15597,1.41565e-16,-6.6738e-17,-0.544957,20.7476,21.1043)">
                    <path d="M9.513,10.816L9.946,11.734L9.08,11.734L9.513,10.816Z"/>
                </g>
            </g>
            <g id="Number15" serif:id="Number" transform="matrix(1,0,0,1,2.81037,0)">
                <g transform="matrix(1,0,0,0.573724,1.06822,6.49762)">
                    <rect x="8.191" y="9.971" width="0.973" height="4.352"/>
                </g>
                <g transform="matrix(1.15597,0,0,0.544957,-1.25898,5.8445)">
                    <path d="M9.513,10.816L9.946,11.734L9.08,11.734L9.513,10.816Z"/>
                </g>
                <g transform="matrix(-1.15597,1.41565e-16,-6.6738e-17,-0.544957,20.7476,21.1043)">
                    <path d="M9.513,10.816L9.946,11.734L9.08,11.734L9.513,10.816Z"/>
                </g>
            </g>
            <g id="Number16" serif:id="Number" transform="matrix(1,0,0,1,0,3.54751)">
                <g transform="matrix(1,0,0,0.573724,1.06822,6.49762)">
                    <rect x="8.191" y="9.971" width="0.973" height="4.352"/>
                </g>
                <g transform="matrix(1.15597,0,0,0.544957,-1.25898,5.8445)">
                    <path d="M9.513,10.816L9.946,11.734L9.08,11.734L9.513,10.816Z"/>
                </g>
                <g transform="matrix(-1.15597,1.41565e-16,-6.6738e-17,-0.544957,20.7476,21.1043)">
                    <path d="M9.513,10.816L9.946,11.734L9.08,11.734L9.513,10.816Z"/>
                </g>
            </g>
            <g id="Number17" serif:id="Number" transform="matrix(1,0,0,1,2.81037,3.54751)">
                <g transform="matrix(1,0,0,0.573724,1.06822,6.49762)">
                    <rect x="8.191" y="9.971" width="0.973" height="4.352"/>
                </g>
                <g transform="matrix(1.15597,0,0,0.544957,-1.25898,5.8445)">
                    <path d="M9.513,10.816L9.946,11.734L9.08,11.734L9.513,10.816Z"/>
                </g>
                <g transform="matrix(-1.15597,1.41565e-16,-6.6738e-17,-0.544957,20.7476,21.1043)">
                    <path d="M9.513,10.816L9.946,11.734L9.08,11.734L9.513,10.816Z"/>
                </g>
            </g>
            <g id="Number18" serif:id="Number" transform="matrix(6.12323e-17,-1,1,6.12323e-17,-1.96151,21.4501)">
                <g transform="matrix(1,0,0,0.4071,1.06822,8.1591)">
                    <rect x="8.191" y="9.971" width="0.973" height="4.352"/>
                </g>
                <g transform="matrix(1.15597,0,0,0.544957,-1.25898,5.8445)">
                    <path d="M9.513,10.816L9.946,11.734L9.08,11.734L9.513,10.816Z"/>
                </g>
                <g transform="matrix(-1.15597,1.41565e-16,-6.6738e-17,-0.544957,20.7476,20.3857)">
                    <path d="M9.513,10.816L9.946,11.734L9.08,11.734L9.513,10.816Z"/>
                </g>
            </g>
            <g id="Number19" serif:id="Number" transform="matrix(6.12323e-17,-1,1,6.12323e-17,-1.96151,25.0003)">
                <g transform="matrix(1,0,0,0.4071,1.06822,8.1591)">
                    <rect x="8.191" y="9.971" width="0.973" height="4.352"/>
                </g>
                <g transform="matrix(1.15597,0,0,0.544957,-1.25898,5.8445)">
                    <path d="M9.513,10.816L9.946,11.734L9.08,11.734L9.513,10.816Z"/>
                </g>
                <g transform="matrix(-1.15597,1.41565e-16,-6.6738e-17,-0.544957,20.7476,20.3857)">
                    <path d="M9.513,10.816L9.946,11.734L9.08,11.734L9.513,10.816Z"/>
                </g>
            </g>
            <g id="Number20" serif:id="Number" transform="matrix(6.12323e-17,-1,1,6.12323e-17,-1.96151,28.5323)">
                <g transform="matrix(1,0,0,0.4071,1.06822,8.1591)">
                    <rect x="8.191" y="9.971" width="0.973" height="4.352"/>
                </g>
                <g transform="matrix(1.15597,0,0,0.544957,-1.25898,5.8445)">
                    <path d="M9.513,10.816L9.946,11.734L9.08,11.734L9.513,10.816Z"/>
                </g>
                <g transform="matrix(-1.15597,1.41565e-16,-6.6738e-17,-0.544957,20.7476,20.3857)">
                    <path d="M9.513,10.816L9.946,11.734L9.08,11.734L9.513,10.816Z"/>
                </g>
            </g>
        </g>
        <g id="レイヤー23" serif:id="レイヤー2" transform="matrix(1,0,0,1,15.4038,0)">
            <g id="Number21" serif:id="Number">
                <g transform="matrix(1,0,0,0.573724,1.06822,6.49762)">
                    <rect x="8.191" y="9.971" width="0.973" height="4.352"/>
                </g>
                <g transform="matrix(1.15597,0,0,0.544957,-1.25898,5.8445)">
                    <path d="M9.513,10.816L9.946,11.734L9.08,11.734L9.513,10.816Z"/>
                </g>
                <g transform="matrix(-1.15597,1.41565e-16,-6.6738e-17,-0.544957,20.7476,21.1043)">
                    <path d="M9.513,10.816L9.946,11.734L9.08,11.734L9.513,10.816Z"/>
                </g>
            </g>
            <g id="Number22" serif:id="Number" transform="matrix(1,0,0,1,2.81037,0)">
                <g transform="matrix(1,0,0,0.573724,1.06822,6.49762)">
                    <rect x="8.191" y="9.971" width="0.973" height="4.352"/>
                </g>
                <g transform="matrix(1.15597,0,0,0.544957,-1.25898,5.8445)">
                    <path d="M9.513,10.816L9.946,11.734L9.08,11.734L9.513,10.816Z"/>
                </g>
                <g transform="matrix(-1.15597,1.41565e-16,-6.6738e-17,-0.544957,20.7476,21.1043)">
                    <path d="M9.513,10.816L9.946,11.734L9.08,11.734L9.513,10.816Z"/>
                </g>
            </g>
            <g id="Number23" serif:id="Number" transform="matrix(1,0,0,1,0,3.54751)">
                <g transform="matrix(1,0,0,0.573724,1.06822,6.49762)">
                    <rect x="8.191" y="9.971" width="0.973" height="4.352"/>
                </g>
                <g transform="matrix(1.15597,0,0,0.544957,-1.25898,5.8445)">
                    <path d="M9.513,10.816L9.946,11.734L9.08,11.734L9.513,10.816Z"/>
                </g>
                <g transform="matrix(-1.15597,1.41565e-16,-6.6738e-17,-0.544957,20.7476,21.1043)">
                    <path d="M9.513,10.816L9.946,11.734L9.08,11.734L9.513,10.816Z"/>
                </g>
            </g>
            <g id="Number24" serif:id="Number" transform="matrix(1,0,0,1,2.81037,3.54751)">
                <g transform="matrix(1,0,0,0.573724,1.06822,6.49762)">
                    <rect x="8.191" y="9.971" width="0.973" height="4.352"/>
                </g>
                <g transform="matrix(1.15597,0,0,0.544957,-1.25898,5.8445)">
                    <path d="M9.513,10.816L9.946,11.734L9.08,11.734L9.513,10.816Z"/>
                </g>
                <g transform="matrix(-1.15597,1.41565e-16,-6.6738e-17,-0.544957,20.7476,21.1043)">
                    <path d="M9.513,10.816L9.946,11.734L9.08,11.734L9.513,10.816Z"/>
                </g>
            </g>
            <g id="Number25" serif:id="Number" transform="matrix(6.12323e-17,-1,1,6.12323e-17,-1.96151,21.4501)">
                <g transform="matrix(1,0,0,0.4071,1.06822,8.1591)">
                    <rect x="8.191" y="9.971" width="0.973" height="4.352"/>
                </g>
                <g transform="matrix(1.15597,0,0,0.544957,-1.25898,5.8445)">
                    <path d="M9.513,10.816L9.946,11.734L9.08,11.734L9.513,10.816Z"/>
                </g>
                <g transform="matrix(-1.15597,1.41565e-16,-6.6738e-17,-0.544957,20.7476,20.3857)">
                    <path d="M9.513,10.816L9.946,11.734L9.08,11.734L9.513,10.816Z"/>
                </g>
            </g>
            <g id="Number26" serif:id="Number" transform="matrix(6.12323e-17,-1,1,6.12323e-17,-1.96151,25.0003)">
                <g transform="matrix(1,0,0,0.4071,1.06822,8.1591)">
                    <rect x="8.191" y="9.971" width="0.973" height="4.352"/>
                </g>
                <g transform="matrix(1.15597,0,0,0.544957,-1.25898,5.8445)">
                    <path d="M9.513,10.816L9.946,11.734L9.08,11.734L9.513,10.816Z"/>
                </g>
                <g transform="matrix(-1.15597,1.41565e-16,-6.6738e-17,-0.544957,20.7476,20.3857)">
                    <path d="M9.513,10.816L9.946,11.734L9.08,11.734L9.513,10.816Z"/>
                </g>
            </g>
            <g id="Number27" serif:id="Number" transform="matrix(6.12323e-17,-1,1,6.12323e-17,-1.96151,28.5323)">
                <g transform="matrix(1,0,0,0.4071,1.06822,8.1591)">
                    <rect x="8.191" y="9.971" width="0.973" height="4.352"/>
                </g>
                <g transform="matrix(1.15597,0,0,0.544957,-1.25898,5.8445)">
                    <path d="M9.513,10.816L9.946,11.734L9.08,11.734L9.513,10.816Z"/>
                </g>
                <g transform="matrix(-1.15597,1.41565e-16,-6.6738e-17,-0.544957,20.7476,20.3857)">
                    <path d="M9.513,10.816L9.946,11.734L9.08,11.734L9.513,10.816Z"/>
                </g>
            </g>
        </g>
        <g id="レイヤー3">
            <g transform="matrix(1,0,0,1,0,0.456522)">
                <circle cx="18.861" cy="13.68" r="0.428"/>
            </g>
            <g transform="matrix(1,0,0,1,0,2.73913)">
                <circle cx="18.861" cy="13.68" r="0.428"/>
            </g>
        </g>
        <g id="レイヤー4" transform="matrix(0.75556,0,0,0.75556,4.77604,3.85639)">
            <g opacity="0.53">
                <g transform="matrix(0.876161,0,0,0.918239,1.91046,0.546979)">
                    <rect x="1.142" y="6.69" width="36.864" height="18.147" style="fill:none;stroke:black;stroke-width:0.49px;"/>
                </g>
            </g>
        </g>
    </g>
    <g transform="matrix(1,0,0,1,3.45502,-1.91698)">
        <path d="M25.381,23.965C24.91,23.92 24.435,23.92 23.964,23.965L23.73,25.102C23.279,25.171 22.836,25.29 22.41,25.456L21.64,24.588C21.208,24.784 20.797,25.021 20.412,25.297L20.778,26.398C20.421,26.684 20.097,27.008 19.812,27.364L18.711,26.998C18.435,27.384 18.198,27.795 18.002,28.226L18.869,28.996C18.703,29.422 18.585,29.865 18.516,30.317L17.379,30.55C17.333,31.021 17.333,31.496 17.379,31.967L18.516,32.201C18.585,32.653 18.703,33.095 18.869,33.521L18.002,34.292C18.198,34.723 18.435,35.134 18.711,35.519L19.812,35.153C20.097,35.51 20.421,35.834 20.778,36.119L20.412,37.22C20.797,37.496 21.208,37.733 21.64,37.929L22.41,37.062C22.836,37.228 23.279,37.346 23.73,37.415L23.964,38.552C24.435,38.598 24.91,38.598 25.381,38.552L25.615,37.415C26.066,37.346 26.509,37.228 26.935,37.062L27.705,37.929C28.136,37.733 28.547,37.496 28.933,37.22L28.567,36.119C28.923,35.834 29.248,35.51 29.533,35.153L30.634,35.519C30.91,35.134 31.147,34.723 31.343,34.292L30.475,33.521C30.641,33.095 30.76,32.653 30.829,32.201L31.966,31.967C32.011,31.496 32.011,31.021 31.966,30.55L30.829,30.317C30.76,29.865 30.641,29.422 30.475,28.996L31.343,28.226C31.147,27.795 30.91,27.384 30.634,26.998L29.533,27.364C29.248,27.008 28.923,26.684 28.567,26.398L28.933,25.297C28.547,25.021 28.136,24.784 27.705,24.588L26.935,25.456C26.509,25.29 26.066,25.171 25.615,25.102L25.381,23.965ZM24.672,29.793C25.481,29.793 26.138,30.45 26.138,31.259C26.138,32.067 25.481,32.724 24.672,32.724C23.864,32.724 23.207,32.067 23.207,31.259C23.207,30.45 23.864,29.793 24.672,29.793Z" style="fill:rgb(49,49,49);"/>
        <path d="M25.381,23.965C24.91,23.92 24.435,23.92 23.964,23.965L23.73,25.102C23.279,25.171 22.836,25.29 22.41,25.456L21.64,24.588C21.208,24.784 20.797,25.021 20.412,25.297L20.778,26.398C20.421,26.684 20.097,27.008 19.812,27.364L18.711,26.998C18.435,27.384 18.198,27.795 18.002,28.226L18.869,28.996C18.703,29.422 18.585,29.865 18.516,30.317L17.379,30.55C17.333,31.021 17.333,31.496 17.379,31.967L18.516,32.201C18.585,32.653 18.703,33.095 18.869,33.521L18.002,34.292C18.198,34.723 18.435,35.134 18.711,35.519L19.812,35.153C20.097,35.51 20.421,35.834 20.778,36.119L20.412,37.22C20.797,37.496 21.208,37.733 21.64,37.929L22.41,37.062C22.836,37.228 23.279,37.346 23.73,37.415L23.964,38.552C24.435,38.598 24.91,38.598 25.381,38.552L25.615,37.415C26.066,37.346 26.509,37.228 26.935,37.062L27.705,37.929C28.136,37.733 28.547,37.496 28.933,37.22L28.567,36.119C28.923,35.834 29.248,35.51 29.533,35.153L30.634,35.519C30.91,35.134 31.147,34.723 31.343,34.292L30.475,33.521C30.641,33.095 30.76,32.653 30.829,32.201L31.966,31.967C32.011,31.496 32.011,31.021 31.966,30.55L30.829,30.317C30.76,29.865 30.641,29.422 30.475,28.996L31.343,28.226C31.147,27.795 30.91,27.384 30.634,26.998L29.533,27.364C29.248,27.008 28.923,26.684 28.567,26.398L28.933,25.297C28.547,25.021 28.136,24.784 27.705,24.588L26.935,25.456C26.509,25.29 26.066,25.171 25.615,25.102L25.381,23.965ZM24.672,29.793C25.481,29.793 26.138,30.45 26.138,31.259C26.138,32.067 25.481,32.724 24.672,32.724C23.864,32.724 23.207,32.067 23.207,31.259C23.207,30.45 23.864,29.793 24.672,29.793Z" style="fill:none;stroke:white;stroke-opacity:0.75;stroke-width:0.5px;stroke-linecap:butt;stroke-miterlimit:2;"/>
    </g>
</svg>
