<?xml version="1.0" encoding="UTF-8" standalone="no"?>
<!DOCTYPE svg PUBLIC "-//W3C//DTD SVG 1.1//EN" "http://www.w3.org/Graphics/SVG/1.1/DTD/svg11.dtd">
<svg width="100%" height="100%" viewBox="0 0 40 40" version="1.1" xmlns="http://www.w3.org/2000/svg" xmlns:xlink="http://www.w3.org/1999/xlink" xml:space="preserve" xmlns:serif="http://www.serif.com/" style="fill-rule:evenodd;clip-rule:evenodd;stroke-linecap:round;stroke-linejoin:round;stroke-miterlimit:1.5;">
    <g transform="matrix(1.14898,0,0,1.14898,-7.84079,-4.39386)">
        <circle cx="24.231" cy="21.231" r="15.231" style="fill:rgb(235,235,235);"/>
    </g>
    <g>
        <g transform="matrix(1.02601,0,0,1.02601,-1.42248,-1.81165)">
            <circle cx="20.879" cy="21.259" r="16.569" style="fill:none;stroke:rgb(176,107,87);stroke-width:1.95px;"/>
        </g>
        <g transform="matrix(0.931034,0,0,0.931034,1.37218,0.390012)">
            <path d="M19.897,19.655L19.897,5.655" style="fill:none;stroke:rgb(89,23,4);stroke-width:1.07px;"/>
        </g>
        <g transform="matrix(0.305913,0.850233,-0.850233,0.305913,32.0324,-3.25794)">
            <path d="M19.897,19.655L19.897,5.655" style="fill:none;stroke:rgb(69,16,0);stroke-width:1.11px;"/>
        </g>
        <g transform="matrix(1,0,0,1,-0.896552,-0.103448)">
            <circle cx="20.897" cy="20.103" r="1.138" style="fill:none;stroke:rgb(93,21,0);stroke-width:0.5px;"/>
        </g>
    </g>
    <g transform="matrix(1.26912,0,0,1.26912,-9.98786,-6.51547)">
        <path d="M12.603,22.904L13.924,22.904C14.221,22.904 14.448,22.926 14.605,22.972C14.815,23.034 14.994,23.144 15.144,23.302C15.294,23.459 15.408,23.653 15.486,23.881C15.564,24.11 15.603,24.392 15.603,24.727C15.603,25.022 15.567,25.276 15.493,25.489C15.404,25.75 15.276,25.96 15.11,26.121C14.985,26.244 14.815,26.339 14.602,26.407C14.443,26.458 14.229,26.483 13.963,26.483L12.603,26.483L12.603,22.904ZM13.325,23.509L13.325,25.88L13.865,25.88C14.067,25.88 14.212,25.868 14.302,25.846C14.419,25.816 14.516,25.767 14.594,25.697C14.671,25.627 14.734,25.511 14.783,25.351C14.832,25.191 14.856,24.972 14.856,24.696C14.856,24.419 14.832,24.207 14.783,24.058C14.734,23.91 14.666,23.795 14.578,23.712C14.49,23.629 14.378,23.573 14.243,23.543C14.142,23.521 13.945,23.509 13.65,23.509L13.325,23.509Z" style="fill-rule:nonzero;"/>
        <path d="M16.724,24.681L16.101,24.569C16.171,24.318 16.292,24.132 16.463,24.012C16.633,23.892 16.887,23.831 17.224,23.831C17.53,23.831 17.758,23.868 17.908,23.94C18.058,24.012 18.163,24.104 18.224,24.216C18.285,24.327 18.316,24.532 18.316,24.83L18.308,25.631C18.308,25.859 18.319,26.027 18.341,26.135C18.363,26.243 18.404,26.359 18.465,26.483L17.786,26.483C17.768,26.437 17.746,26.37 17.72,26.28C17.709,26.239 17.7,26.213 17.695,26.2C17.578,26.313 17.453,26.399 17.32,26.456C17.186,26.513 17.044,26.541 16.892,26.541C16.625,26.541 16.415,26.469 16.261,26.324C16.107,26.179 16.03,25.996 16.03,25.775C16.03,25.628 16.065,25.498 16.135,25.383C16.205,25.268 16.303,25.18 16.43,25.119C16.556,25.058 16.738,25.005 16.975,24.959C17.296,24.899 17.518,24.843 17.642,24.791L17.642,24.723C17.642,24.591 17.609,24.497 17.544,24.441C17.479,24.384 17.356,24.356 17.175,24.356C17.053,24.356 16.958,24.38 16.89,24.428C16.821,24.476 16.766,24.561 16.724,24.681ZM17.642,25.238C17.554,25.267 17.415,25.302 17.224,25.343C17.034,25.383 16.909,25.423 16.851,25.462C16.761,25.526 16.716,25.606 16.716,25.704C16.716,25.8 16.752,25.883 16.824,25.953C16.896,26.023 16.987,26.058 17.097,26.058C17.221,26.058 17.339,26.017 17.451,25.936C17.534,25.874 17.589,25.798 17.615,25.709C17.633,25.65 17.642,25.539 17.642,25.374L17.642,25.238Z" style="fill-rule:nonzero;"/>
        <path d="M20.181,23.89L20.181,24.437L19.712,24.437L19.712,25.482C19.712,25.693 19.717,25.817 19.726,25.852C19.734,25.887 19.755,25.916 19.787,25.938C19.818,25.961 19.857,25.973 19.903,25.973C19.966,25.973 20.058,25.951 20.178,25.907L20.237,26.439C20.077,26.507 19.897,26.541 19.695,26.541C19.571,26.541 19.46,26.521 19.361,26.479C19.261,26.438 19.188,26.384 19.142,26.318C19.096,26.252 19.063,26.163 19.046,26.051C19.031,25.971 19.024,25.81 19.024,25.567L19.024,24.437L18.709,24.437L18.709,23.89L19.024,23.89L19.024,23.375L19.712,22.974L19.712,23.89L20.181,23.89Z" style="fill-rule:nonzero;"/>
        <path d="M22.158,25.658L22.842,25.772C22.754,26.023 22.615,26.214 22.426,26.345C22.236,26.476 21.999,26.541 21.714,26.541C21.263,26.541 20.93,26.394 20.713,26.099C20.542,25.863 20.457,25.566 20.457,25.206C20.457,24.776 20.569,24.44 20.794,24.196C21.018,23.953 21.302,23.831 21.646,23.831C22.031,23.831 22.336,23.959 22.559,24.213C22.782,24.468 22.888,24.858 22.879,25.384L21.16,25.384C21.165,25.588 21.22,25.746 21.326,25.859C21.432,25.972 21.563,26.029 21.721,26.029C21.829,26.029 21.919,25.999 21.992,25.941C22.066,25.882 22.121,25.788 22.158,25.658ZM22.197,24.964C22.193,24.766 22.141,24.615 22.044,24.511C21.946,24.408 21.827,24.356 21.687,24.356C21.537,24.356 21.414,24.411 21.316,24.52C21.218,24.629 21.17,24.777 21.172,24.964L22.197,24.964Z" style="fill-rule:nonzero;"/>
        <path d="M24.248,26.483L24.248,23.509L23.186,23.509L23.186,22.904L26.03,22.904L26.03,23.509L24.971,23.509L24.971,26.483L24.248,26.483Z" style="fill-rule:nonzero;"/>
        <path d="M26.402,23.538L26.402,22.904L27.088,22.904L27.088,23.538L26.402,23.538ZM26.402,26.483L26.402,23.89L27.088,23.89L27.088,26.483L26.402,26.483Z" style="fill-rule:nonzero;"/>
        <path d="M27.739,23.89L28.372,23.89L28.372,24.244C28.598,23.969 28.867,23.831 29.18,23.831C29.346,23.831 29.49,23.866 29.612,23.934C29.734,24.002 29.834,24.106 29.912,24.244C30.026,24.106 30.149,24.002 30.281,23.934C30.413,23.866 30.554,23.831 30.703,23.831C30.894,23.831 31.055,23.87 31.187,23.947C31.319,24.025 31.417,24.138 31.482,24.288C31.529,24.399 31.553,24.578 31.553,24.825L31.553,26.483L30.867,26.483L30.867,25.001C30.867,24.744 30.843,24.578 30.796,24.503C30.733,24.405 30.635,24.356 30.503,24.356C30.407,24.356 30.317,24.386 30.232,24.444C30.147,24.503 30.086,24.589 30.049,24.702C30.012,24.815 29.993,24.994 29.993,25.238L29.993,26.483L29.307,26.483L29.307,25.062C29.307,24.81 29.295,24.647 29.27,24.574C29.246,24.5 29.208,24.446 29.157,24.41C29.105,24.374 29.036,24.356 28.948,24.356C28.842,24.356 28.747,24.385 28.662,24.442C28.578,24.499 28.517,24.581 28.48,24.688C28.444,24.796 28.425,24.974 28.425,25.223L28.425,26.483L27.739,26.483L27.739,23.89Z" style="fill-rule:nonzero;"/>
        <path d="M33.738,25.658L34.422,25.772C34.334,26.023 34.195,26.214 34.005,26.345C33.816,26.476 33.578,26.541 33.294,26.541C32.843,26.541 32.509,26.394 32.293,26.099C32.122,25.863 32.036,25.566 32.036,25.206C32.036,24.776 32.149,24.44 32.373,24.196C32.598,23.953 32.882,23.831 33.225,23.831C33.611,23.831 33.915,23.959 34.138,24.213C34.361,24.468 34.468,24.858 34.458,25.384L32.739,25.384C32.744,25.588 32.8,25.746 32.905,25.859C33.011,25.972 33.143,26.029 33.301,26.029C33.408,26.029 33.499,25.999 33.572,25.941C33.645,25.882 33.701,25.788 33.738,25.658ZM33.777,24.964C33.772,24.766 33.721,24.615 33.623,24.511C33.526,24.408 33.407,24.356 33.267,24.356C33.117,24.356 32.993,24.411 32.896,24.52C32.798,24.629 32.75,24.777 32.752,24.964L33.777,24.964Z" style="fill-rule:nonzero;"/>
    </g>
</svg>
